<svg width="287" height="120" viewBox="0 0 287 120" fill="none" xmlns="http://www.w3.org/2000/svg">
<path d="M226.87 119.84C259.963 119.84 286.79 93.0129 286.79 59.92C286.79 26.8271 259.963 0 226.87 0C193.777 0 166.95 26.8271 166.95 59.92C166.95 93.0129 193.777 119.84 226.87 119.84Z" fill="#EB2227"/>
<path d="M210.67 65.87C208.77 68.26 206.79 69.25 204.73 69.25C201.1 69.25 199.95 66.28 199.95 63.4V42.7L187.58 44.25V66.0299C187.58 76.2499 193.76 80.79 200.03 80.79C205.64 80.79 208.85 78.4 210.67 76.09V79.8L223.04 78.9V42.7H210.67V65.87Z" fill="white"/>
<path d="M251.48 41.7099C246.95 41.7099 243.23 43.44 241.17 45.5V42.7H228.8V95.3899L241.17 96.29V79.6299C242.9 80.3699 245.54 80.7799 248.1 80.7799C260.14 80.7799 268.05 71.96 268.05 60.66C268.05 49.36 261.45 41.7 251.48 41.7V41.7099ZM246.95 69.25C244.31 69.25 242.99 68.9199 241.18 67.8499V56.55C243.24 54.24 245.22 53.25 247.61 53.25C252.31 53.25 254.87 56.6299 254.87 60.9199C254.87 65.4499 252.31 69.25 246.95 69.25Z" fill="white"/>
<path d="M48.5399 41.71C36.3399 41.71 28.4199 50.45 28.4199 61.25C28.4199 72.96 36.3399 80.79 48.5399 80.79C53.8199 80.79 59.0899 79.47 62.9699 76.58L59.5899 67.84C57.6099 69.08 54.1499 70.48 49.8599 70.48C45.8199 70.48 42.3599 68.91 41.1999 65.37H65.7699C66.2599 63.72 66.5099 62.07 66.5099 59.19C66.5099 48.64 58.0999 41.71 48.5399 41.71ZM40.7899 57.13C41.9399 53.83 44.0099 52.02 48.1299 52.02C52.2499 52.02 54.1499 54.58 54.1499 57.13H40.7899Z" fill="#FFCA31"/>
<path d="M89.7899 41.71C77.5899 41.71 69.6699 50.45 69.6699 61.25C69.6699 72.96 77.5899 80.79 89.7899 80.79C95.0699 80.79 100.34 79.47 104.22 76.58L100.84 67.84C98.8599 69.08 95.3999 70.48 91.1099 70.48C87.0699 70.48 83.6099 68.91 82.4499 65.37H107.02C107.51 63.72 107.76 62.07 107.76 59.19C107.76 48.64 99.3499 41.71 89.7899 41.71ZM82.0399 57.13C83.1899 53.83 85.2599 52.02 89.3799 52.02C93.4999 52.02 95.3999 54.58 95.3999 57.13H82.0399Z" fill="#FFCA31"/>
<path d="M137.86 22.08V42.86C136.29 42.12 134.31 41.71 131.76 41.71C119.64 41.71 111.31 49.96 111.31 61.75C111.31 73.54 117.91 80.47 128.46 80.47C132.83 80.47 135.63 78.9 137.86 76.76V79.81L150.23 78.91V23.65L137.86 22.1V22.08ZM137.86 66.2C136.05 67.85 133.74 68.92 131.02 68.92C127.89 68.92 124.51 66.36 124.51 61.33C124.51 55.81 128.47 53.25 132.34 53.25C134.32 53.25 136.13 53.83 137.86 54.82V66.2Z" fill="#FFCA31"/>
<path d="M17.63 42.7V37.42C17.63 34.12 19.36 32.64 21.01 32.64C22.66 32.64 24.47 33.05 25.46 34.12L29.58 24.72C27.6 22.58 23.23 21.09 18.78 21.09C10.53 21.09 5.26 26.37 5.26 36.67V42.69H0L1.89 54.22H5.26V78.89L17.63 79.79V54.23H25.46V54.21L27.29 42.68H17.63V42.7Z" fill="#FFCA31"/>
</svg>
